<?xml version="1.0" encoding="utf-8"?>
<!-- Generator: Adobe Illustrator 27.7.0, SVG Export Plug-In . SVG Version: 6.00 Build 0)  -->
<svg version="1.1" id="svg8093" xmlns:svg="http://www.w3.org/2000/svg"
	 xmlns="http://www.w3.org/2000/svg" xmlns:xlink="http://www.w3.org/1999/xlink" x="0px" y="0px" viewBox="0 0 411 91"
	 style="enable-background:new 0 0 411 91;" xml:space="preserve">
<style type="text/css">
	.st0{fill:#253858;}
	.st1{fill:#2684FF;}
	.st2{fill:url(#path8015_00000135651852233815675910000010032168178215882407_);}
	.st3{fill:url(#path8025_00000085948316138097047560000010765006485851642279_);}
</style>
<path id="path7981" class="st0" d="M247.5,22.8c-6.4,0-9.4,3.7-9.4,9.3v3.2h-4.8v4.7h4.8v25h5v-25h7.7v-4.7h-7.7l0-3.1
	c0-2.7,1.6-4.5,4.7-4.5c1.1,0,2.1,0.1,3.2,0.3v-4.7C249.8,23,248.7,22.8,247.5,22.8L247.5,22.8z M98.4,23.9c-0.8,0-1.6,0.4-2.2,1
	c-0.7,0.7-1,1.6-1,2.6c0,1.3,0.7,2.5,1.8,3.1c1.1,0.6,2.5,0.6,3.6,0c1.1-0.6,1.8-1.8,1.8-3.1c0.1-1-0.3-1.9-1-2.6
	c-0.7-0.7-1.6-1-2.6-1C98.7,23.9,98.6,23.9,98.4,23.9L98.4,23.9z M183.6,25.4c-9.1,0-13.7,4.5-13.7,10.6c0,6.4,3.9,9.4,12.7,11.6
	c7.4,1.8,9.6,3.6,9.6,7.1c0,3.4-2.2,5.8-8.1,5.8c-5.2,0-10.7-1.4-14.4-3.3v5.5c3,1.5,6.5,3,14.1,3c9.7,0,13.7-4.6,13.8-11.3
	c0-7-4.6-9.7-12.9-11.7c-6.9-1.7-9.4-3.3-9.4-6.5c0-3.6,3-5.3,8.1-5.3c4.2-0.1,8.4,0.9,12.1,3v-5.3
	C192.8,26.8,189.2,25.4,183.6,25.4z M83.7,26l0,27.5c0,3.9-1.6,6.6-6.1,6.6c-1.9,0-3.8-0.3-5.5-1v5.2c2.1,0.7,4.2,1,6.4,1
	c7.4,0,10.5-5,10.5-12.1V26H83.7L83.7,26z M258.3,29v6.3h-4.8v4.7h4.8v15.7c0,5.5,3.1,9.3,9.4,9.3c1.2,0,2.3-0.2,3.4-0.5v-4.9
	c-1.1,0.2-2.1,0.4-3.2,0.4c-3.1,0-4.7-1.8-4.7-4.4V40.1h7.9v-4.7h-7.9V29C263.3,29,258.3,29,258.3,29z M390.8,34.7
	c-9,0-14,6.4-14,15.4c0,9.1,4.9,15.5,16,15.5c3,0,6.8-0.5,9.2-1.8v-4.7c-2.9,1.1-5.9,1.6-9,1.6c-7,0-10.3-3.3-11-8.3h21.7v-2.3
	C403.6,41.1,400,34.7,390.8,34.7L390.8,34.7z M139,34.7c-8.3,0-12.5,7.1-12.5,15.4c0,8.7,4,15.4,11.9,15.4c4.6,0,8.1-2,10-5.9l0,5.3
	h5.1V35.3h-5.1v5.2C146.6,36.7,143.3,34.7,139,34.7L139,34.7z M216.1,34.7c-8.9,0-14.1,6.5-14.1,15.4c0,8.9,5.3,15.5,14.1,15.5
	c8.8,0,14-6.6,14-15.5C230.1,41.2,225,34.7,216.1,34.7z M337.1,34.7c-8.3,0-12.5,7.1-12.5,15.4c0,8.7,4,15.4,11.9,15.4
	c4.6,0,8.1-2,10-5.9l0,5.3h5.1V35.3h-5.1v5.2C344.7,36.7,341.4,34.7,337.1,34.7L337.1,34.7z M123.4,34.9c-5.1,0-7.8,2.4-9.5,5.7
	v-5.2h-5V65h5V47.5c0-6.3,4-8.3,10.5-7.6v-5C124.1,34.9,123.8,34.9,123.4,34.9L123.4,34.9z M373.8,34.9c-5.1,0-7.8,2.4-9.5,5.7v-5.2
	h-5V65h5V47.5c0-6.3,4-8.3,10.5-7.6v-5C374.4,34.9,374.1,34.9,373.8,34.9L373.8,34.9z M272.6,35.3L283.5,65h6.5l5.2-14.4l2.7-9.1
	l2.7,9.1l5.1,14.4h6.5l10.9-29.7h-5.6L309,60.5l-8.7-25.2h-4.9l-8.7,25.2l-8.5-25.2C278.3,35.3,272.6,35.3,272.6,35.3z M96.2,35.3
	V65h5.1V35.3C101.3,35.3,96.2,35.3,96.2,35.3z M390.6,39.4c5.1,0,7.6,3.1,7.9,8.7h-16.5v0C382.5,42.9,385.2,39.4,390.6,39.4
	L390.6,39.4z M140.3,39.5c4.4,0,8.1,2.9,8.1,9.5v2.4c0,6.6-4.1,9.5-8.7,9.5c-5.3,0-8.1-3.6-8.2-10.7
	C131.6,43.3,134.6,39.5,140.3,39.5L140.3,39.5z M338.4,39.5c4.4,0,8.1,2.9,8.1,9.5v2.4c0,6.6-4.1,9.5-8.7,9.5
	c-5.3,0-8.2-3.6-8.2-10.7C329.7,43.3,332.7,39.5,338.4,39.5z M216.1,39.5c6.3,0,9,5,9,10.6c0,5.6-2.7,10.7-9,10.7s-9.1-5.1-9.1-10.7
	h0C206.9,44.5,209.8,39.5,216.1,39.5L216.1,39.5z"/>
<path id="path8005" class="st1" d="M58.9,44.1l-22-22L34.7,20L10.6,44.1c-0.8,0.8-0.8,2.1,0,2.9L25.7,62l9,9l24.1-24.1
	C59.6,46.1,59.6,44.9,58.9,44.1z M34.7,53.1l-7.6-7.6l7.6-7.6l7.6,7.6L34.7,53.1z"/>
<linearGradient id="path8015_00000084528646960712082160000009738042093576724612_" gradientUnits="userSpaceOnUse" x1="-4.285690e-03" y1="184.2147" x2="-4.9725" y2="179.2477" gradientTransform="matrix(1.7409 0 0 -1.7409 31.4997 352.8958)">
	<stop  offset="0" style="stop-color:#0052CC"/>
	<stop  offset="1" style="stop-color:#2684FF"/>
</linearGradient>
<path id="path8015" style="fill:url(#path8015_00000084528646960712082160000009738042093576724612_);" d="M34.7,37.9
	c-4.9-4.9-5-13-0.1-17.9L18.2,36.5l9,9L34.7,37.9z"/>
<linearGradient id="path8025_00000052065585610981881120000007889399012192256898_" gradientUnits="userSpaceOnUse" x1="3.7793" y1="168.9881" x2="8.7376" y2="173.9464" gradientTransform="matrix(1.7409 0 0 -1.7409 31.4997 352.8958)">
	<stop  offset="0" style="stop-color:#0052CC"/>
	<stop  offset="1" style="stop-color:#2684FF"/>
</linearGradient>
<path id="path8025" style="fill:url(#path8025_00000052065585610981881120000007889399012192256898_);" d="M42.3,45.5l-7.6,7.6
	c2.4,2.4,3.7,5.6,3.7,9c0,3.4-1.3,6.6-3.7,9l16.6-16.6C51.3,54.5,42.3,45.5,42.3,45.5z"/>
</svg>
