<svg width="209" height="32" viewBox="0 0 209 32" fill="none" xmlns="http://www.w3.org/2000/svg">
<g id="logo-gradient-neutral-jira-software">
<g id="Jira Software">
<path d="M39.1359 3.82456H41.9646V18.6742C41.9646 22.5897 40.2817 25.3232 36.3789 25.3232C34.9108 25.3232 33.765 25.0647 32.9773 24.7691V21.9248C33.8366 22.2942 34.875 22.4789 35.9134 22.4789C38.3124 22.4789 39.1359 21.0013 39.1359 18.8589V3.82456Z" fill="#505F79"/>
<path d="M47.1206 2.67942C48.2306 2.67942 49.0183 3.38127 49.0183 4.63721C49.0183 5.8562 48.2306 6.59499 47.1206 6.59499C46.0106 6.59499 45.2229 5.89314 45.2229 4.63721C45.2229 3.38127 46.0106 2.67942 47.1206 2.67942ZM45.76 8.92217H48.4812V25.1755H45.76V8.92217Z" fill="#505F79"/>
<path d="M55.2127 25.1755H52.5631V8.92216H55.2127V11.7665C56.1437 9.84564 57.7192 8.47889 60.7985 8.66358V11.3971C57.3253 11.0277 55.2127 12.0989 55.2127 15.5712V25.1755Z" fill="#505F79"/>
<path d="M73.4739 22.2573C72.4713 24.3997 70.5736 25.5079 68.1388 25.5079C63.9495 25.5079 61.8369 21.8509 61.8369 17.0488C61.8369 12.4683 64.0569 8.58971 68.461 8.58971C70.7526 8.58971 72.5429 9.66095 73.4739 11.7665V8.92216H76.1952V25.1755H73.4739V22.2573ZM68.8549 22.8852C71.2897 22.8852 73.4381 21.2968 73.4381 17.6768V16.3839C73.4381 12.7639 71.4688 11.1755 69.1414 11.1755C66.0978 11.1755 64.5224 13.2441 64.5224 17.0119C64.5582 20.9644 66.062 22.8852 68.8549 22.8852Z" fill="#505F79"/>
<path d="M92.2363 25.5079C88.226 25.5079 86.3641 24.6953 84.7528 23.8457V20.8536C86.6863 21.8879 89.6224 22.6267 92.3795 22.6267C95.4946 22.6267 96.6762 21.3707 96.6762 19.4868C96.6762 17.6029 95.5304 16.6056 91.5918 15.6082C86.937 14.4261 84.8602 12.7639 84.8602 9.25464C84.8602 5.9301 87.3308 3.45516 92.1289 3.45516C95.1366 3.45516 97.0343 4.19395 98.4665 5.00661V7.92482C96.3898 6.70582 94.134 6.29949 92.0214 6.29949C89.3002 6.29949 87.6889 7.25991 87.6889 9.2177C87.6889 10.9908 89.0137 11.8404 92.6659 12.8008C97.0343 13.9459 99.5049 15.3866 99.5049 19.2283C99.5049 22.9961 97.3565 25.5079 92.2363 25.5079Z" fill="#505F79"/>
<path d="M101.904 17.0119C101.904 12.1359 104.661 8.58971 109.387 8.58971C114.078 8.58971 116.835 12.1359 116.835 17.0119C116.835 21.8879 114.078 25.5079 109.387 25.5079C104.661 25.5079 101.904 21.8879 101.904 17.0119ZM104.554 17.0119C104.554 20.1148 106.022 22.8852 109.423 22.8852C112.753 22.8852 114.221 20.0778 114.221 17.0119C114.221 13.9459 112.789 11.1755 109.423 11.1755C106.022 11.2124 104.554 13.9459 104.554 17.0119Z" fill="#505F79"/>
<path d="M127.828 8.92215V11.5079H123.746V25.1755H121.096V11.5079H118.518V8.92215H121.06V7.14907C121.06 4.12004 122.707 2.08838 126.073 2.08838C126.897 2.08838 127.434 2.23614 127.899 2.34695V4.93271C127.434 4.82189 126.825 4.78495 126.181 4.78495C124.498 4.78495 123.674 5.78231 123.674 7.25988V8.92215H127.828Z" fill="#505F79"/>
<path d="M136.958 22.5528C137.603 22.5528 138.176 22.405 138.677 22.3312V25.0277C138.211 25.1755 137.674 25.2863 136.851 25.2863C133.485 25.2863 131.838 23.2546 131.838 20.2256V11.5079H129.26V8.92218H131.802V5.48682H134.452V8.92218H138.641V11.5079H134.452V20.1148C134.488 21.5554 135.275 22.5528 136.958 22.5528Z" fill="#505F79"/>
<path d="M157.01 25.1755L154.288 17.3074L152.856 12.2836L151.424 17.3074L148.703 25.1755H145.229L139.429 8.92215H142.437L146.984 22.7005L151.567 8.92215H154.145L158.728 22.7005L163.276 8.92215H166.283L160.483 25.1755H157.01Z" fill="#505F79"/>
<path d="M178.636 22.2573C177.634 24.3997 175.736 25.5079 173.301 25.5079C169.112 25.5079 166.999 21.8509 166.999 17.0488C166.999 12.4683 169.219 8.58971 173.624 8.58971C175.915 8.58971 177.706 9.66095 178.636 11.7665V8.92216H181.358V25.1755H178.636V22.2573ZM174.053 22.8852C176.488 22.8852 178.636 21.2968 178.636 17.6768V16.3839C178.636 12.7639 176.667 11.1755 174.34 11.1755C171.296 11.1755 169.721 13.2441 169.721 17.0119C169.721 20.9644 171.26 22.8852 174.053 22.8852Z" fill="#505F79"/>
<path d="M188.089 25.1755H185.44V8.92216H188.089V11.7665C189.02 9.84564 190.596 8.47889 193.675 8.66358V11.3971C190.202 11.0277 188.089 12.0989 188.089 15.5712V25.1755Z" fill="#505F79"/>
<path d="M203.235 25.5079C197.327 25.5079 194.749 21.9987 194.749 17.0119C194.749 12.0989 197.399 8.58971 202.197 8.58971C207.066 8.58971 209 12.062 209 17.0119V18.2678H197.506C197.9 21.0383 199.619 22.8113 203.343 22.8113C205.169 22.8113 206.708 22.442 208.141 21.9248V24.5106C206.816 25.2493 204.846 25.5079 203.235 25.5079ZM197.47 15.8668H206.243C206.1 12.8377 204.775 11.1385 202.054 11.1385C199.189 11.1385 197.757 13.0594 197.47 15.8668Z" fill="#505F79"/>
</g>
<g id="Icon">
<path id="Vector" d="M25.9236 13.7243L14.2508 1.68206L13.105 0.5L4.33253 9.55013L0.322255 13.7243C-0.107418 14.1675 -0.107418 14.8694 0.322255 15.2757L8.34281 23.5501L13.105 28.4631L21.8775 19.4129L22.0207 19.2652L25.9236 15.2757C26.3533 14.8325 26.3533 14.1306 25.9236 13.7243ZM13.105 18.6372L9.09474 14.5L13.105 10.3628L17.1153 14.5L13.105 18.6372Z" fill="#7A869A"/>
<path id="Vector_2" d="M13.105 10.3627C10.4912 7.66615 10.4554 3.27037 13.0692 0.536865L4.33252 9.587L9.09473 14.4999L13.105 10.3627Z" fill="url(#paint0_linear)"/>
<path id="Vector_3" d="M17.1511 14.463L13.105 18.6372C15.7546 21.3707 15.7546 25.7664 13.105 28.5L21.9133 19.4129L17.1511 14.463Z" fill="url(#paint1_linear)"/>
</g>
</g>
<defs>
<linearGradient id="paint0_linear" x1="12.4029" y1="6.1683" x2="6.62753" y2="11.7665" gradientUnits="userSpaceOnUse">
<stop offset="0.176" stop-color="#344563"/>
<stop offset="1" stop-color="#7A869A"/>
</linearGradient>
<linearGradient id="paint1_linear" x1="13.8853" y1="22.7668" x2="19.6492" y2="17.1798" gradientUnits="userSpaceOnUse">
<stop offset="0.176" stop-color="#344563"/>
<stop offset="1" stop-color="#7A869A"/>
</linearGradient>
</defs>
</svg>
