<svg width="308" height="33" viewBox="0 0 308 33" fill="none" xmlns="http://www.w3.org/2000/svg">
<g id="logo-gradient-white-partner">
<g id="Group">
<g id="Group_2">
<g id="Group_3">
<path id="Vector" d="M7.83872 11.8844C7.47796 11.4876 6.93675 11.5236 6.68422 11.9926L0.839888 23.7174C0.623431 24.1864 0.948099 24.7276 1.45317 24.7276H9.60642C9.85896 24.7276 10.1115 24.5832 10.2197 24.3307C12.0235 20.687 10.9413 15.1673 7.83872 11.8844Z" fill="url(#paint0_linear)"/>
<path id="Vector_2" d="M12.1324 1.20563C8.84946 6.4006 9.06592 12.1367 11.2305 16.4659C13.3951 20.795 15.0545 24.0779 15.1628 24.3304C15.271 24.583 15.5236 24.7273 15.7761 24.7273H23.9293C24.4344 24.7273 24.7951 24.1861 24.5426 23.7171C24.5426 23.7171 13.5754 1.7828 13.2868 1.24165C13.1064 0.736587 12.4571 0.700563 12.1324 1.20563Z" fill="white"/>
</g>
</g>
<g id="Group_4">
<g id="Group_5">
<g id="Group_6">
<path id="Vector_3" d="M122.921 18.9194C122.921 15.4922 121.081 13.8688 115.958 12.7505C113.108 12.1372 112.423 11.4878 112.423 10.5859C112.423 9.46753 113.433 8.96246 115.309 8.96246C117.582 8.96246 119.818 9.64786 121.947 10.6219V6.11239C120.468 5.35479 118.159 4.77759 115.453 4.77759C110.366 4.77759 107.733 6.97822 107.733 10.6219C107.733 13.508 109.068 15.817 114.335 16.8271C117.473 17.4765 118.123 17.9815 118.123 19.0277C118.123 20.0378 117.473 20.6872 115.237 20.6872C112.675 20.6872 109.609 19.8214 107.625 18.6309V23.3568C109.212 24.1505 111.304 25.0164 115.201 25.0164C120.756 25.0164 122.921 22.5631 122.921 18.9194Z" fill="white"/>
<path id="Vector_4" d="M178.442 5.06628V24.7278H182.627V9.75619L184.395 13.7246L190.311 24.7278H195.579V5.06628H191.394V17.7651L189.806 14.0853L185.044 5.06628H178.442Z" fill="white"/>
<path id="Vector_5" d="M151.818 5.06628H147.236V24.6917H151.818V5.06628Z" fill="white"/>
<path id="Vector_6" d="M141.968 18.9194C141.968 15.4922 140.129 13.8688 135.006 12.7505C132.156 12.1372 131.47 11.4878 131.47 10.5859C131.47 9.46753 132.48 8.96246 134.356 8.96246C136.629 8.96246 138.866 9.64786 140.994 10.6219V6.11239C139.515 5.35479 137.206 4.77759 134.501 4.77759C129.414 4.77759 126.78 6.97822 126.78 10.6219C126.78 13.508 128.115 15.817 133.382 16.8271C136.521 17.4765 137.17 17.9815 137.17 19.0277C137.17 20.0378 136.521 20.6872 134.284 20.6872C131.723 20.6872 128.656 19.8214 126.672 18.6309V23.3568C128.26 24.1505 130.352 25.0164 134.248 25.0164C139.804 25.0164 141.968 22.5631 141.968 18.9194Z" fill="white"/>
<path id="Vector_7" d="M72.2339 5.06628V24.7278H81.6497L83.1289 20.4708H76.8516V5.06628H72.2339Z" fill="white"/>
<path id="Vector_8" d="M53.6905 5.06763V9.32464H58.7773V24.7292H63.3589V9.32464H68.8065V5.06763H53.6905Z" fill="white"/>
</g>
</g>
<path id="Vector_9" d="M47.0166 5.06726H40.9919L34.1375 24.6927H39.3685L40.3425 21.3737C41.497 21.6984 42.7236 21.9148 44.0223 21.9148C45.285 21.9148 46.5116 21.7344 47.7021 21.3737L48.6762 24.6927H53.9072L47.0166 5.06726ZM43.9863 17.8743C43.1204 17.8743 42.2546 17.73 41.4609 17.5136L43.9863 8.9274L46.5116 17.5136C45.7179 17.73 44.8521 17.8743 43.9863 17.8743Z" fill="white"/>
<path id="Vector_10" d="M97.8481 5.0658H91.8233L84.9688 24.6912H90.1999L91.174 21.3722C92.3284 21.6969 93.555 21.9134 94.8537 21.9134C96.1525 21.9134 97.343 21.733 98.5335 21.3722L99.5075 24.6912H104.739L97.8481 5.0658ZM94.8537 17.8728C93.9879 17.8728 93.1221 17.7285 92.3284 17.5121L94.8537 8.92593L97.3791 17.5121C96.5493 17.7285 95.7196 17.8728 94.8537 17.8728Z" fill="white"/>
<path id="Vector_11" d="M168.304 5.0658H162.279L155.425 24.6912H160.656L161.63 21.3722C162.784 21.6969 164.011 21.9134 165.31 21.9134C166.609 21.9134 167.799 21.733 168.99 21.3722L169.964 24.6912H175.195L168.304 5.0658ZM165.274 17.8728C164.408 17.8728 163.542 17.7285 162.748 17.5121L165.274 8.92593L167.799 17.5121C167.005 17.7285 166.176 17.8728 165.274 17.8728Z" fill="white"/>
</g>
</g>
<g id="Group_7">
<path id="Vector_12" d="M215.132 17.801H210.911V24.6915H208.025V3.62305H215.132C220.399 3.62305 222.96 6.32876 222.96 10.6579C222.96 15.2396 220.399 17.801 215.132 17.801ZM219.966 10.73C219.966 8.16863 218.523 6.4009 214.807 6.4009H210.911V15.0592H214.807C218.523 15.1674 219.966 13.3997 219.966 10.73Z" fill="white"/>
<path id="Vector_13" d="M236.381 21.8415C235.371 23.9699 233.423 25.0522 230.969 25.0522C226.712 25.0522 224.548 21.4086 224.548 16.7186C224.548 12.173 226.785 8.38501 231.294 8.38501C233.639 8.38501 235.443 9.4312 236.417 11.5236V8.70975H239.195V24.7637H236.417V21.8415H236.381ZM231.691 22.4547C234.18 22.4547 236.381 20.8674 236.381 17.3319V16.0331C236.381 12.4616 234.361 10.9103 232.016 10.9103C228.913 10.9103 227.29 12.9667 227.29 16.6825C227.29 20.5427 228.841 22.4547 231.691 22.4547Z" fill="white"/>
<path id="Vector_14" d="M244.75 24.7276H242.045V8.67373H244.75V11.4877C245.688 9.57565 247.276 8.24084 250.451 8.42122V11.1269C246.915 10.7662 244.75 11.8484 244.75 15.2396V24.7276Z" fill="white"/>
<path id="Vector_15" d="M259.145 22.13C259.795 22.13 260.408 21.9857 260.877 21.9135V24.5832C260.408 24.7275 259.867 24.8358 259.001 24.8358C255.574 24.8358 253.878 22.8154 253.878 19.8211V11.235H251.281V8.6736H253.878V5.28247H256.584V8.6736H260.841V11.235H256.584V19.749C256.62 21.1559 257.45 22.13 259.145 22.13Z" fill="white"/>
<path id="Vector_16" d="M278.085 24.7274H275.307V15.023C275.307 12.1369 274.153 10.8381 271.519 10.8381C268.958 10.8381 267.19 12.5337 267.19 15.7805V24.6913H264.412V8.67353H267.19V11.3071C268.2 9.39507 270.112 8.34888 272.277 8.34888C275.956 8.34888 278.085 10.8741 278.085 15.3115V24.7274Z" fill="white"/>
<path id="Vector_17" d="M289.592 25.0521C283.604 25.0521 280.97 21.5888 280.97 16.6824C280.97 11.8482 283.676 8.34888 288.546 8.34888C293.488 8.34888 295.473 11.7761 295.473 16.6824V17.9451H283.748C284.145 20.6869 285.912 22.4546 289.7 22.4546C291.576 22.4546 293.128 22.0939 294.571 21.5888V24.1142C293.272 24.7635 291.252 25.0521 289.592 25.0521ZM283.712 15.528H292.659C292.514 12.5337 291.143 10.8381 288.402 10.8381C285.48 10.8381 284 12.7501 283.712 15.528Z" fill="white"/>
<path id="Vector_18" d="M301.463 24.7276H298.757V8.67373H301.463V11.4877C302.401 9.57565 303.988 8.24084 307.163 8.42122V11.1269C303.627 10.7662 301.463 11.8484 301.463 15.2396V24.7276Z" fill="white"/>
</g>
</g>
<defs>
<linearGradient id="paint0_linear" x1="11.0624" y1="13.677" x2="4.88215" y2="24.3816" gradientUnits="userSpaceOnUse">
<stop stop-color="white" stop-opacity="0.4"/>
<stop offset="0.9228" stop-color="white"/>
</linearGradient>
</defs>
</svg>
