<svg width="308" height="33" viewBox="0 0 308 33" fill="none" xmlns="http://www.w3.org/2000/svg">
<g id="logo-gradient-blue-partner">
<g id="Group">
<g id="Group_2">
<g id="Group_3">
<path id="Vector" d="M7.8416 11.8845C7.48084 11.4877 6.93969 11.5238 6.68716 11.9928L0.842816 23.7175C0.626359 24.1865 0.951044 24.7277 1.45611 24.7277H9.60933C9.86187 24.7277 10.1144 24.5833 10.2226 24.3308C12.0264 20.6871 10.9442 15.1674 7.8416 11.8845Z" fill="url(#paint0_linear)"/>
<path id="Vector_2" d="M12.1352 1.20563C8.85227 6.4006 9.06873 12.1367 11.2333 16.4659C13.3979 20.795 15.0574 24.0779 15.1656 24.3304C15.2738 24.583 15.5264 24.7273 15.7789 24.7273H23.9321C24.4372 24.7273 24.7979 24.1861 24.5454 23.7171C24.5454 23.7171 13.5783 1.7828 13.2896 1.24165C13.1093 0.736587 12.4599 0.700563 12.1352 1.20563Z" fill="#2684FF"/>
</g>
</g>
<g id="Group_4">
<g id="Group_5">
<g id="Group_6">
<path id="Vector_3" d="M122.926 18.9194C122.926 15.4922 121.086 13.8688 115.963 12.7505C113.113 12.1372 112.428 11.4878 112.428 10.5859C112.428 9.46753 113.438 8.96246 115.314 8.96246C117.587 8.96246 119.823 9.64786 121.952 10.6219V6.11239C120.473 5.35479 118.164 4.77759 115.458 4.77759C110.371 4.77759 107.738 6.97822 107.738 10.6219C107.738 13.508 109.073 15.817 114.34 16.8271C117.478 17.4765 118.128 17.9815 118.128 19.0277C118.128 20.0378 117.478 20.6872 115.242 20.6872C112.68 20.6872 109.614 19.8214 107.63 18.6309V23.3568C109.217 24.1505 111.309 25.0164 115.206 25.0164C120.761 25.0164 122.926 22.5631 122.926 18.9194Z" fill="#0052CC"/>
<path id="Vector_4" d="M178.447 5.06628V24.7278H182.631V9.75619L184.399 13.7246L190.316 24.7278H195.583V5.06628H191.398V17.7651L189.811 14.0853L185.048 5.06628H178.447Z" fill="#0052CC"/>
<path id="Vector_5" d="M151.822 5.06628H147.24V24.6917H151.822V5.06628Z" fill="#0052CC"/>
<path id="Vector_6" d="M141.974 18.9194C141.974 15.4922 140.134 13.8688 135.011 12.7505C132.161 12.1372 131.475 11.4878 131.475 10.5859C131.475 9.46753 132.486 8.96246 134.361 8.96246C136.634 8.96246 138.871 9.64786 141 10.6219V6.11239C139.52 5.35479 137.212 4.77759 134.506 4.77759C129.419 4.77759 126.785 6.97822 126.785 10.6219C126.785 13.508 128.12 15.817 133.387 16.8271C136.526 17.4765 137.175 17.9815 137.175 19.0277C137.175 20.0378 136.526 20.6872 134.289 20.6872C131.728 20.6872 128.661 19.8214 126.677 18.6309V23.3568C128.265 24.1505 130.357 25.0164 134.253 25.0164C139.809 25.0164 141.974 22.5631 141.974 18.9194Z" fill="#0052CC"/>
<path id="Vector_7" d="M72.238 5.06628V24.7278H81.6539L83.133 20.4708H76.8558V5.06628H72.238Z" fill="#0052CC"/>
<path id="Vector_8" d="M53.6951 5.06763V9.32464H58.7818V24.7292H63.3635V9.32464H68.811V5.06763H53.6951Z" fill="#0052CC"/>
</g>
</g>
<path id="Vector_9" d="M47.0215 5.06689H40.9968L34.1423 24.6923H39.3734L40.3474 21.3733C41.5019 21.698 42.7285 21.9145 44.0272 21.9145C45.2899 21.9145 46.5165 21.7341 47.707 21.3733L48.681 24.6923H53.9121L47.0215 5.06689ZM43.9911 17.8739C43.1253 17.8739 42.2595 17.7296 41.4658 17.5132L43.9911 8.92703L46.5165 17.5132C45.7228 17.7296 44.857 17.8739 43.9911 17.8739Z" fill="#0052CC"/>
<path id="Vector_10" d="M97.8533 5.06592H91.8286L84.9741 24.6913H90.2052L91.1792 21.3723C92.3337 21.697 93.5603 21.9135 94.859 21.9135C96.1217 21.9135 97.3483 21.7331 98.5388 21.3723L99.5128 24.6913H104.744L97.8533 5.06592ZM94.859 17.873C93.9932 17.873 93.1273 17.7287 92.3337 17.5122L94.859 8.92605L97.3843 17.5122C96.5546 17.7287 95.7248 17.873 94.859 17.873Z" fill="#0052CC"/>
<path id="Vector_11" d="M168.31 5.06592H162.285L155.43 24.6913H160.661L161.636 21.3723C162.79 21.697 164.017 21.9135 165.315 21.9135C166.578 21.9135 167.805 21.7331 168.995 21.3723L169.969 24.6913H175.2L168.31 5.06592ZM165.279 17.873C164.413 17.873 163.548 17.7287 162.754 17.5122L165.279 8.92605L167.805 17.5122C167.011 17.7287 166.181 17.873 165.279 17.873Z" fill="#0052CC"/>
</g>
</g>
<g id="Group_7">
<g id="Group_8">
<path id="Vector_12" d="M215.135 17.801H210.914V24.6915H208.028V3.62305H215.135C220.402 3.62305 222.964 6.32876 222.964 10.6579C222.964 15.2396 220.402 17.801 215.135 17.801ZM219.97 10.73C219.97 8.16863 218.526 6.4009 214.811 6.4009H210.914V15.0592H214.811C218.526 15.1674 219.97 13.3997 219.97 10.73Z" fill="#253858"/>
<path id="Vector_13" d="M236.385 21.8415C235.375 23.9699 233.427 25.0522 230.973 25.0522C226.716 25.0522 224.552 21.4086 224.552 16.7186C224.552 12.173 226.788 8.38501 231.298 8.38501C233.643 8.38501 235.447 9.4312 236.421 11.5236V8.70975H239.199V24.7637H236.421V21.8415H236.385ZM231.695 22.4547C234.184 22.4547 236.385 20.8674 236.385 17.3319V16.0331C236.385 12.4616 234.364 10.9103 232.02 10.9103C228.917 10.9103 227.294 12.9667 227.294 16.6825C227.294 20.5427 228.845 22.4547 231.695 22.4547Z" fill="#253858"/>
<path id="Vector_14" d="M244.756 24.7276H242.051V8.67373H244.756V11.4877C245.694 9.57565 247.282 8.24084 250.456 8.42122V11.1269C246.921 10.7662 244.756 11.8484 244.756 15.2396V24.7276Z" fill="#253858"/>
<path id="Vector_15" d="M259.15 22.13C259.8 22.13 260.413 21.9857 260.882 21.9135V24.5832C260.413 24.7275 259.872 24.8358 259.006 24.8358C255.579 24.8358 253.883 22.8154 253.883 19.8211V11.235H251.286V8.6736H253.883V5.28247H256.589V8.6736H260.882V11.235H256.625V19.749C256.625 21.1559 257.455 22.13 259.15 22.13Z" fill="#253858"/>
<path id="Vector_16" d="M278.089 24.7274H275.311V15.023C275.311 12.1369 274.157 10.8381 271.523 10.8381C268.962 10.8381 267.194 12.5337 267.194 15.7805V24.6913H264.416V8.67353H267.194V11.3071C268.204 9.39507 270.116 8.34888 272.281 8.34888C275.96 8.34888 278.089 10.8741 278.089 15.3115V24.7274Z" fill="#253858"/>
<path id="Vector_17" d="M289.598 25.0521C283.609 25.0521 280.976 21.5888 280.976 16.6824C280.976 11.8482 283.682 8.34888 288.552 8.34888C293.494 8.34888 295.478 11.7761 295.478 16.6824V17.9451H283.754C284.151 20.6869 285.918 22.4546 289.706 22.4546C291.582 22.4546 293.134 22.0939 294.577 21.5888V24.1142C293.278 24.7635 291.258 25.0521 289.598 25.0521ZM283.718 15.528H292.665C292.52 12.5337 291.149 10.8381 288.408 10.8381C285.485 10.8381 284.006 12.7501 283.718 15.528Z" fill="#253858"/>
<path id="Vector_18" d="M301.468 24.7276H298.762V8.67373H301.468V11.4877C302.406 9.57565 303.993 8.24084 307.168 8.42122V11.1269C303.632 10.7662 301.468 11.8484 301.468 15.2396V24.7276Z" fill="#253858"/>
</g>
</g>
</g>
<defs>
<linearGradient id="paint0_linear" x1="11.0654" y1="13.6771" x2="4.88506" y2="24.3817" gradientUnits="userSpaceOnUse">
<stop stop-color="#0052CC"/>
<stop offset="0.9228" stop-color="#2684FF"/>
</linearGradient>
</defs>
</svg>
