<svg width="308" height="33" viewBox="0 0 308 33" fill="none" xmlns="http://www.w3.org/2000/svg">
<g id="logo-gradient-neutral-partner">
<g id="Group">
<g id="Group_2">
<g id="Group_3">
<path id="Vector" d="M7.83867 11.8843C7.47791 11.4874 6.93679 11.5235 6.68425 11.9925L0.839883 23.7173C0.623426 24.1863 0.948138 24.7274 1.4532 24.7274H9.60642C9.85895 24.7274 10.1115 24.5831 10.2197 24.3306C12.0235 20.6869 10.9412 15.1672 7.83867 11.8843Z" fill="url(#paint0_linear)"/>
<path id="Vector_2" d="M12.1334 1.20563C8.85044 6.4006 9.06689 12.1367 11.2315 16.4659C13.396 20.795 15.0556 24.0779 15.1638 24.3304C15.272 24.583 15.5245 24.7273 15.7771 24.7273H23.9303C24.4353 24.7273 24.7961 24.1861 24.5436 23.7171C24.5436 23.7171 13.5764 1.7828 13.2878 1.24165C13.1074 0.736587 12.4581 0.700563 12.1334 1.20563Z" fill="#7A869A"/>
</g>
</g>
<g id="Group_4">
<g id="Group_5">
<g id="Group_6">
<path id="Vector_3" d="M122.92 18.9193C122.92 15.4921 121.08 13.8687 115.957 12.7503C113.107 12.137 112.422 11.4877 112.422 10.5858C112.422 9.46741 113.432 8.96234 115.308 8.96234C117.58 8.96234 119.817 9.64774 121.946 10.6218V6.11227C120.467 5.35467 118.158 4.77747 115.452 4.77747C110.365 4.77747 107.732 6.9781 107.732 10.6218C107.732 13.5079 109.066 15.8168 114.334 16.827C117.472 17.4763 118.122 17.9814 118.122 19.0276C118.122 20.0377 117.472 20.6871 115.236 20.6871C112.674 20.6871 109.608 19.8213 107.623 18.6308V23.3567C109.211 24.1504 111.303 25.0163 115.199 25.0163C120.755 25.0163 122.92 22.563 122.92 18.9193Z" fill="#505F79"/>
<path id="Vector_4" d="M178.44 5.06604V24.7276H182.625V9.75595L184.393 13.7243L190.309 24.7276H195.576V5.06604H191.392V17.7648L189.804 14.0851L185.042 5.06604H178.44Z" fill="#505F79"/>
<path id="Vector_5" d="M151.816 5.06604H147.235V24.6915H151.816V5.06604Z" fill="#505F79"/>
<path id="Vector_6" d="M141.968 18.9193C141.968 15.4921 140.128 13.8687 135.005 12.7503C132.155 12.137 131.47 11.4877 131.47 10.5858C131.47 9.46741 132.48 8.96234 134.356 8.96234C136.629 8.96234 138.866 9.64774 140.994 10.6218V6.11227C139.515 5.35467 137.206 4.77747 134.5 4.77747C129.414 4.77747 126.78 6.9781 126.78 10.6218C126.78 13.5079 128.115 15.8168 133.382 16.827C136.521 17.4763 137.17 17.9814 137.17 19.0276C137.17 20.0377 136.521 20.6871 134.284 20.6871C131.723 20.6871 128.656 19.8213 126.672 18.6308V23.3567C128.259 24.1504 130.352 25.0163 134.248 25.0163C139.804 25.0163 141.968 22.563 141.968 18.9193Z" fill="#505F79"/>
<path id="Vector_7" d="M72.2325 5.06604V24.7276H81.6484L83.1276 20.4706H76.8503V5.06604H72.2325Z" fill="#505F79"/>
<path id="Vector_8" d="M53.6903 5.0675V9.32451H58.7771V24.729H63.3587V9.32451H68.8062V5.0675H53.6903Z" fill="#505F79"/>
</g>
</g>
<path id="Vector_9" d="M47.0166 5.0675H40.9919L34.1375 24.6929H39.3685L40.3425 21.3739C41.497 21.6986 42.7236 21.9151 44.0223 21.9151C45.285 21.9151 46.5116 21.7347 47.7021 21.3739L48.6762 24.6929H53.9072L47.0166 5.0675ZM43.9863 17.8746C43.1204 17.8746 42.2546 17.7303 41.4609 17.5138L43.9863 8.92764L46.5116 17.5138C45.7179 17.7303 44.8521 17.8746 43.9863 17.8746Z" fill="#505F79"/>
<path id="Vector_10" d="M97.8479 5.06604H91.8232L84.9688 24.6915H90.1998L91.1738 21.3725C92.3283 21.6972 93.5549 21.9136 94.8536 21.9136C96.1163 21.9136 97.3429 21.7332 98.5334 21.3725L99.5074 24.6915H104.738L97.8479 5.06604ZM94.8536 17.8731C93.9878 17.8731 93.122 17.7288 92.3283 17.5123L94.8536 8.92618L97.379 17.5123C96.5492 17.7288 95.7195 17.8731 94.8536 17.8731Z" fill="#505F79"/>
<path id="Vector_11" d="M168.305 5.06604H162.28L155.426 24.6915H160.657L161.631 21.3725C162.785 21.6972 164.012 21.9136 165.311 21.9136C166.573 21.9136 167.8 21.7332 168.991 21.3725L169.965 24.6915H175.196L168.305 5.06604ZM165.275 17.8731C164.409 17.8731 163.543 17.7288 162.749 17.5123L165.275 8.92618L167.8 17.5123C167.006 17.7288 166.177 17.8731 165.275 17.8731Z" fill="#505F79"/>
</g>
</g>
<g id="Group_7">
<path id="Vector_12" d="M215.133 17.801H210.912V24.6915H208.026V3.62305H215.133C220.4 3.62305 222.962 6.32876 222.962 10.6579C222.962 15.2396 220.4 17.801 215.133 17.801ZM219.967 10.73C219.967 8.16863 218.524 6.4009 214.808 6.4009H210.912V15.0592H214.808C218.524 15.1674 219.967 13.3997 219.967 10.73Z" fill="#505F79"/>
<path id="Vector_13" d="M236.382 21.8415C235.372 23.9699 233.424 25.0522 230.97 25.0522C226.713 25.0522 224.549 21.4086 224.549 16.7186C224.549 12.173 226.786 8.38501 231.295 8.38501C233.64 8.38501 235.444 9.4312 236.418 11.5236V8.70975H239.196V24.7637H236.418V21.8415H236.382ZM231.692 22.4547C234.181 22.4547 236.382 20.8674 236.382 17.3319V16.0331C236.382 12.4616 234.362 10.9103 232.017 10.9103C228.914 10.9103 227.291 12.9667 227.291 16.6825C227.291 20.5427 228.842 22.4547 231.692 22.4547Z" fill="#505F79"/>
<path id="Vector_14" d="M244.75 24.7276H242.045V8.67373H244.75V11.4877C245.688 9.57565 247.276 8.24084 250.45 8.42122V11.1269C246.915 10.7662 244.75 11.8484 244.75 15.2396V24.7276Z" fill="#505F79"/>
<path id="Vector_15" d="M259.145 22.13C259.795 22.13 260.408 21.9857 260.877 21.9135V24.5832C260.408 24.7275 259.867 24.8358 259.001 24.8358C255.574 24.8358 253.878 22.8154 253.878 19.8211V11.235H251.281V8.6736H253.878V5.28247H256.584V8.6736H260.841V11.235H256.584V19.749C256.62 21.1559 257.45 22.13 259.145 22.13Z" fill="#505F79"/>
<path id="Vector_16" d="M278.086 24.7274H275.308V15.023C275.308 12.1369 274.154 10.8381 271.52 10.8381C268.959 10.8381 267.191 12.5337 267.191 15.7805V24.6913H264.413V8.67353H267.191V11.3071C268.201 9.39507 270.113 8.34888 272.278 8.34888C275.957 8.34888 278.086 10.8741 278.086 15.3115V24.7274Z" fill="#505F79"/>
<path id="Vector_17" d="M289.594 25.0521C283.606 25.0521 280.972 21.5888 280.972 16.6824C280.972 11.8482 283.678 8.34888 288.548 8.34888C293.49 8.34888 295.475 11.7761 295.475 16.6824V17.9451H283.75C284.147 20.6869 285.914 22.4546 289.702 22.4546C291.578 22.4546 293.13 22.0939 294.573 21.5888V24.1142C293.274 24.7635 291.254 25.0521 289.594 25.0521ZM283.714 15.528H292.661C292.516 12.5337 291.145 10.8381 288.404 10.8381C285.481 10.8381 284.002 12.7501 283.714 15.528Z" fill="#505F79"/>
<path id="Vector_18" d="M301.464 24.7276H298.758V8.67373H301.464V11.4877C302.402 9.57565 303.989 8.24084 307.164 8.42122V11.1269C303.628 10.7662 301.464 11.8484 301.464 15.2396V24.7276Z" fill="#505F79"/>
</g>
</g>
<defs>
<linearGradient id="paint0_linear" x1="11.0624" y1="13.6769" x2="4.88213" y2="24.3814" gradientUnits="userSpaceOnUse">
<stop stop-color="#344563"/>
<stop offset="0.9228" stop-color="#7A869A"/>
</linearGradient>
</defs>
</svg>
