<?xml version="1.0" encoding="utf-8"?>
<!-- Generator: Adobe Illustrator 27.9.0, SVG Export Plug-In . SVG Version: 6.00 Build 0)  -->
<svg version="1.1" id="Layer_1" xmlns="http://www.w3.org/2000/svg" xmlns:xlink="http://www.w3.org/1999/xlink" x="0px" y="0px"
	 viewBox="0 0 780.4 134.8" style="enable-background:new 0 0 780.4 134.8;" xml:space="preserve">
<style type="text/css">
	.st0{fill:#6ACEFF;}
	.st1{fill:#6D6D6D;}
</style>
<g id="Logo" transform="translate(-198.05 -312.063)">
	<path id="Path_397" class="st0" d="M556,367.6h-65c-2.6,0.2-4.9,1.8-6.1,4.2L471,401.2c-0.6,1.1,0,2.1,1,2.1h10.8
		c1.3-0.1,2.5-0.9,3-2.1l5.4-11.5h43.3l-5.4,11.5c-0.6,1.1,0,2.1,1,2.1h10.8c1.3-0.1,2.5-0.9,3-2.1l13.9-29.4
		C559.2,369.5,558.2,367.6,556,367.6z M539.8,378.9c-0.7,1.4-2,2.3-3.5,2.5h-38.6c-1.3,0-1.8-1.1-1.2-2.5c0.7-1.4,2-2.3,3.5-2.4
		h38.6C539.9,376.5,540.4,377.6,539.8,378.9L539.8,378.9z"/>
	<path id="Path_398" class="st0" d="M395.4,315.7l-131.5,16.6c-11.1,1.4-25.2,11.7-31.4,22.8L202.9,420c-6.2,11.1-2.2,19,8.9,17.5
		l131.4-17c6.8-0.9,14.7-5.1,21.2-10.7h-32l-3.4-7l16.6-35.2l-3-6h-15.3l-8.7,6.1L301,405.3l-6.7,4.6h-15.8l-3.4-7l16.7-35.2
		l-16.6,35.2l16.6-35.2l-3-6.1h-45.6l4-8.5c2.1-4.2,6.2-7.1,10.8-7.5h117.5c4.1,0,5.7,3.4,3.8,7.5l-23.6,49.4h15.5
		c1.2-1.5,2.2-3.1,3.2-4.8l29.8-64.5C410.6,322.2,406.5,314.3,395.4,315.7z M266.1,369.6l-16.9,35.7l-6.6,4.6h-15.5l-3.5-7.1
		l15.7-33.2H266.1z"/>
	<path id="Path_399" class="st0" d="M569.4,367.6l-4.2,8.9h29.5l-11.4,24.2l1.3,2.6h9.8l3.8-2.6l11.4-24.3H639l4.2-8.9L569.4,367.6z
		"/>
	<path id="Path_400" class="st0" d="M712.7,367.6h-54.1c-3.8,0.3-7.3,2.7-9.1,6.2l-7.1,15.1c-3.8,7.9-0.6,14.3,7,14.3h54.1
		c3.8-0.3,7.3-2.7,9.1-6.3l7.1-15.1C723.4,374,720.3,367.6,712.7,367.6z M704.4,382.8l-3.9,8.3c-1,1.9-2.8,3.1-4.8,3.4h-34.8
		c-3.4,0-4.8-2.8-3.1-6.3l3.9-8.3c1-1.9,2.8-3.2,4.8-3.4h34.8C704.7,376.5,706,379.3,704.4,382.8L704.4,382.8z"/>
	<path id="Path_401" class="st0" d="M746.9,376.5h59.3l2.2-4.6c1.1-2.3,0.2-4.2-2.1-4.2h-66.1c-2.6,0.2-4.9,1.8-6.1,4.2l-2.2,4.6
		l-8.6,17.9l-2.2,4.6c-1.1,2.3-0.2,4.2,2.1,4.2h51.2c2.6-0.2,4.9-1.8,6.1-4.2l-1.9,4.2h14.9l6.4-13.6l3.9-8.3h-30.1l-3.9,8.3H785
		l-2.2,4.7h-41.3c-1.8,0-2.4-1.4-1.6-3.1L746.9,376.5z"/>
	<path id="Path_402" class="st0" d="M883.4,381.3h-55.2c-1.3,0-1.8-1.1-1.2-2.5c0.7-1.4,2-2.3,3.5-2.4h58.2l2.7-5.7
		c0.8-1.8,0.2-3.1-1.6-3.1h-66c-2.6,0.2-4.9,1.8-6,4.2l-10.7,22.4c-2.3,5-0.3,9.1,4.5,9.1H876l2.7-5.8c0.8-1.8,0.2-3.1-1.6-3.1
		h-55.3c-1.3,0-1.8-1-1.2-2.4s2-2.2,3.4-2.4h58.5l2.5-5.2C885.7,382.8,885.1,381.3,883.4,381.3z"/>
	<path id="Path_403" class="st0" d="M961.3,367.6l-10.4,22.1l-27.2-22.1h-20.4l-16.8,35.7h14.9l12.1-25.6l31,25.6h14.9l16.8-35.7
		H961.3z"/>
	<path id="Path_404" class="st0" d="M474.7,367.2h-67c-2.6,0.2-5,1.8-6.2,4.3l-2.2,4.8h26l1.8,3.4l0,0l-9.5,20.1l2,4h8.9l3.8-2.6
		l10.1-21.4l5-3.4h8.7l1.7,3.4l-9.5,20.1l2,3.9h8.9l3.8-2.6l13.9-29.6C477.9,369.2,477.1,367.2,474.7,367.2z"/>
	<path id="Path_405" class="st0" d="M388.2,399.8l2,4.1h8.8l3.8-2.6l10.1-21.5h-15.3L388.2,399.8z"/>
</g>
<g>
	<path class="st1" d="M207.9,125.1l8.5-20.9h2.2l8.5,20.9h-2.8l-2.5-6.3h-8.7l-2.5,6.3H207.9z M217.5,107.4c-0.9,2.6-1.8,5-2.7,7.1
		l-0.8,2h6.9l-0.8-2C219.3,112.3,218.4,110,217.5,107.4L217.5,107.4z"/>
	<path class="st1" d="M229.1,117.8c0-1,0.1-1.9,0.3-2.7s0.5-1.5,0.8-2.1c0.3-0.6,0.7-1.1,1.2-1.5c0.4-0.4,0.9-0.7,1.4-1
		c0.5-0.2,1-0.4,1.5-0.5c0.5-0.1,1-0.2,1.4-0.2c0.9,0,1.7,0.2,2.4,0.5c0.7,0.3,1.3,0.7,1.8,1.3h0v-9.2h2.4v22.6h-1.8l-0.5-1.7h-0.1
		c-0.2,0.2-0.4,0.5-0.7,0.7c-0.2,0.2-0.5,0.5-0.9,0.7c-0.3,0.2-0.7,0.4-1.2,0.5c-0.4,0.1-1,0.2-1.5,0.2c-0.8,0-1.6-0.1-2.4-0.4
		s-1.5-0.7-2.1-1.3s-1.1-1.4-1.5-2.4C229.3,120.4,229.1,119.2,229.1,117.8z M231.7,117.8c0,0.9,0.1,1.6,0.3,2.3
		c0.2,0.7,0.5,1.3,0.8,1.8c0.4,0.5,0.8,0.9,1.3,1.1c0.5,0.3,1.1,0.4,1.8,0.4c0.5,0,1-0.1,1.4-0.2c0.4-0.1,0.8-0.3,1.1-0.5
		c0.3-0.2,0.6-0.4,0.8-0.7s0.4-0.5,0.6-0.6v-7.8c-0.5-0.5-1.1-0.9-1.7-1.2c-0.7-0.3-1.4-0.5-2.1-0.5c-0.5,0-0.9,0.1-1.4,0.3
		c-0.5,0.2-1,0.5-1.4,0.9c-0.4,0.4-0.8,1-1.1,1.8C231.8,115.7,231.7,116.6,231.7,117.8z"/>
	<path class="st1" d="M252.1,122.6c0.4-1.1,0.8-2.5,1.5-4.1l3-8.2h2.4l-5.6,14.8h-2.5l-5.6-14.8h2.4l3,8.2
		C251.2,120.1,251.7,121.5,252.1,122.6L252.1,122.6z"/>
	<path class="st1" d="M270.6,123.4L270.6,123.4c-0.3,0.2-0.5,0.5-0.8,0.7c-0.3,0.2-0.7,0.5-1,0.7c-0.4,0.2-0.8,0.3-1.3,0.5
		c-0.5,0.1-1,0.2-1.5,0.2c-0.7,0-1.4-0.1-2-0.3c-0.6-0.2-1.1-0.5-1.5-0.9c-0.4-0.4-0.8-0.9-1-1.5c-0.2-0.6-0.4-1.3-0.4-2
		c0-0.7,0.1-1.4,0.4-2c0.3-0.6,0.6-1.1,1.1-1.5c0.5-0.4,1.1-0.7,1.7-0.9s1.4-0.3,2.2-0.3c0.8,0,1.5,0.1,2.1,0.2s1.2,0.3,1.8,0.5h0.1
		v-1c0-0.4,0-0.8-0.1-1.1c-0.1-0.3-0.1-0.6-0.3-0.8c-0.3-0.5-0.7-0.9-1.3-1.2s-1.4-0.5-2.4-0.5c-0.8,0-1.5,0.1-2.1,0.2
		c-0.7,0.1-1.3,0.3-2,0.6v-2c0.2-0.1,0.5-0.2,0.9-0.4c0.3-0.1,0.7-0.2,1.1-0.3s0.8-0.1,1.2-0.2c0.4,0,0.8-0.1,1.2-0.1
		c1.5,0,2.7,0.3,3.7,0.8s1.6,1.2,2.1,2.1c0.2,0.3,0.3,0.7,0.3,1.1c0.1,0.4,0.1,0.8,0.1,1.3v9.9h-2L270.6,123.4z M270.5,118.6
		c-0.4-0.1-1-0.2-1.6-0.4c-0.6-0.1-1.3-0.2-2-0.2c-1,0-1.8,0.2-2.4,0.7c-0.6,0.4-0.9,1.1-0.9,2c0,0.5,0.1,0.9,0.2,1.2
		c0.1,0.3,0.3,0.6,0.6,0.9c0.3,0.2,0.6,0.4,0.9,0.5c0.3,0.1,0.7,0.2,1.1,0.2c0.5,0,1-0.1,1.4-0.2c0.4-0.2,0.8-0.3,1.2-0.5
		c0.3-0.2,0.6-0.4,0.9-0.6c0.2-0.2,0.4-0.4,0.5-0.5V118.6z"/>
	<path class="st1" d="M279.9,112.3L279.9,112.3c0.3-0.3,0.6-0.7,0.9-1s0.7-0.6,1.1-0.8c0.4-0.2,0.9-0.4,1.3-0.5s1-0.2,1.6-0.2
		c0.7,0,1.3,0.1,1.9,0.3s1.1,0.5,1.5,0.9c0.4,0.4,0.8,1,1,1.6c0.3,0.7,0.4,1.5,0.4,2.5v9.9h-2.4v-9.5c0-1.3-0.2-2.2-0.7-2.8
		c-0.5-0.6-1.2-0.8-2.2-0.8c-0.8,0-1.6,0.2-2.4,0.7c-0.8,0.5-1.5,1.1-2,1.9v10.5h-2.4v-14.8h1.9L279.9,112.3z"/>
	<path class="st1" d="M300.8,109.8c0.7,0,1.4,0.1,2.1,0.2c0.7,0.2,1.2,0.4,1.7,0.6v2c-0.7-0.2-1.3-0.4-1.8-0.6
		c-0.6-0.1-1.1-0.2-1.7-0.2c-0.6,0-1.2,0.1-1.8,0.3c-0.6,0.2-1.1,0.5-1.6,1s-0.8,1.1-1.1,1.8c-0.3,0.7-0.4,1.7-0.4,2.8
		c0,0.8,0.1,1.5,0.3,2.2c0.2,0.7,0.5,1.3,1,1.8c0.4,0.5,1,0.9,1.6,1.2c0.6,0.3,1.4,0.4,2.2,0.4c0.6,0,1.2-0.1,1.8-0.2
		c0.6-0.1,1.2-0.3,1.8-0.6v2c-0.2,0.1-0.4,0.2-0.7,0.3c-0.3,0.1-0.6,0.2-0.9,0.3s-0.7,0.1-1.1,0.2c-0.4,0-0.8,0.1-1.2,0.1
		c-1,0-1.9-0.2-2.8-0.5s-1.7-0.8-2.3-1.4c-0.7-0.6-1.2-1.4-1.6-2.4c-0.4-1-0.6-2.1-0.6-3.4c0-1,0.1-1.9,0.3-2.6s0.5-1.5,0.8-2.1
		c0.4-0.6,0.8-1.1,1.2-1.5c0.5-0.4,1-0.8,1.5-1c0.5-0.3,1.1-0.5,1.7-0.6C299.7,109.9,300.3,109.8,300.8,109.8z"/>
	<path class="st1" d="M308.6,106.8v-2.7h2.4v2.7H308.6z M308.6,125.1v-14.8h2.4v14.8H308.6z"/>
	<path class="st1" d="M318.3,112.3L318.3,112.3c0.3-0.3,0.6-0.7,0.9-1s0.7-0.6,1.1-0.8c0.4-0.2,0.9-0.4,1.3-0.5s1-0.2,1.6-0.2
		c0.7,0,1.3,0.1,1.9,0.3s1.1,0.5,1.5,0.9c0.4,0.4,0.8,1,1,1.6c0.3,0.7,0.4,1.5,0.4,2.5v9.9h-2.4v-9.5c0-1.3-0.2-2.2-0.7-2.8
		c-0.5-0.6-1.2-0.8-2.2-0.8c-0.8,0-1.6,0.2-2.4,0.7c-0.8,0.5-1.5,1.1-2,1.9v10.5h-2.4v-14.8h1.9L318.3,112.3z"/>
	<path class="st1" d="M338.5,109.8c0.6,0,1.2,0.1,1.7,0.2c0.5,0.2,0.9,0.4,1.2,0.6s0.6,0.5,0.8,0.7c0.2,0.2,0.3,0.4,0.4,0.5h0.1
		l0.5-1.7h1.8v15.7c0,1.1-0.2,2.1-0.6,3c-0.4,0.8-0.9,1.6-1.6,2.1c-0.7,0.6-1.5,1-2.4,1.3c-1,0.3-2,0.4-3.2,0.4
		c-1,0-1.9-0.1-2.6-0.3c-0.8-0.2-1.4-0.4-1.8-0.6v-2c0.4,0.1,0.7,0.3,1,0.4c0.3,0.1,0.7,0.2,1,0.2c0.4,0.1,0.7,0.1,1.1,0.1
		c0.4,0,0.8,0,1.2,0c1.7,0,3.1-0.4,4-1.2c0.9-0.8,1.4-2.1,1.4-3.7v-2h0c-0.5,0.6-1.1,1-1.9,1.3s-1.5,0.4-2.4,0.4
		c-0.4,0-0.9,0-1.3-0.1c-0.5-0.1-1-0.3-1.4-0.5c-0.5-0.2-0.9-0.5-1.4-0.9c-0.4-0.4-0.8-0.8-1.2-1.4c-0.3-0.6-0.6-1.2-0.8-2
		c-0.2-0.8-0.3-1.6-0.3-2.6c0-1.4,0.2-2.6,0.6-3.6s0.9-1.9,1.5-2.5c0.6-0.7,1.3-1.2,2.1-1.5C336.9,110,337.7,109.8,338.5,109.8z
		 M334.5,117.7c0,1.2,0.1,2.1,0.4,2.9c0.3,0.7,0.6,1.3,1.1,1.7c0.4,0.4,0.9,0.7,1.4,0.8c0.5,0.2,1,0.2,1.5,0.2
		c0.8,0,1.5-0.2,2.1-0.5c0.7-0.3,1.2-0.7,1.7-1.2v-7.8c-0.1-0.2-0.3-0.4-0.6-0.6c-0.2-0.2-0.5-0.5-0.8-0.7c-0.3-0.2-0.7-0.4-1.1-0.5
		s-0.8-0.2-1.3-0.2c-0.7,0-1.4,0.1-1.9,0.4c-0.5,0.3-1,0.7-1.4,1.2c-0.4,0.5-0.6,1.1-0.8,1.8C334.5,116.1,334.5,116.9,334.5,117.7z"
		/>
	<path class="st1" d="M359,113.2h11v-9h2.5v20.9H370v-9.6h-11v9.6h-2.5v-20.9h2.5V113.2z"/>
	<path class="st1" d="M383.4,125.5c-0.8,0-1.5-0.1-2.1-0.2c-0.6-0.2-1.2-0.4-1.6-0.7c-0.5-0.3-0.9-0.7-1.2-1.1
		c-0.3-0.4-0.6-0.9-0.8-1.4c-0.1-0.4-0.2-0.8-0.3-1.2c-0.1-0.4-0.1-0.9-0.1-1.5v-9.1h2.4v9.1c0,0.8,0.1,1.5,0.3,2.1
		c0.2,0.6,0.7,1.1,1.2,1.5c0.6,0.4,1.3,0.5,2.1,0.5c0.9,0,1.7-0.2,2.2-0.6c0.6-0.4,1-0.9,1.2-1.6c0.2-0.5,0.3-1.1,0.3-1.9v-9.1h2.4
		v9.1c0,0.5,0,1-0.1,1.4c-0.1,0.4-0.1,0.8-0.3,1.2c-0.2,0.5-0.4,1-0.8,1.4c-0.3,0.4-0.7,0.8-1.2,1.1c-0.5,0.3-1,0.6-1.7,0.7
		C384.9,125.4,384.2,125.5,383.4,125.5z"/>
	<path class="st1" d="M406.2,125.1h-2.4v-9.5c0-0.6-0.1-1.2-0.2-1.6s-0.3-0.8-0.6-1.1c-0.3-0.3-0.6-0.5-1-0.6
		c-0.4-0.1-0.8-0.2-1.2-0.2c-0.9,0-1.7,0.2-2.4,0.7c-0.7,0.5-1.3,1.1-1.9,1.9v10.5h-2.4v-14.8h1.9l0.5,2.1h0c0.3-0.3,0.6-0.7,0.9-1
		c0.3-0.3,0.7-0.6,1.1-0.8c0.4-0.2,0.8-0.4,1.3-0.5s1-0.2,1.5-0.2c1.1,0,2,0.3,2.8,0.8c0.7,0.5,1.3,1.3,1.7,2.2h0.1
		c0.7-0.9,1.4-1.7,2.3-2.2c0.8-0.5,1.8-0.8,3-0.8c0.5,0,1.1,0.1,1.7,0.2c0.6,0.1,1.1,0.4,1.6,0.8s0.9,0.9,1.2,1.6s0.5,1.6,0.5,2.7
		v9.9h-2.4v-9.5c0-0.6-0.1-1.2-0.2-1.6s-0.3-0.8-0.6-1.1c-0.3-0.3-0.6-0.5-1-0.6c-0.4-0.1-0.8-0.2-1.2-0.2c-0.9,0-1.7,0.2-2.4,0.7
		c-0.7,0.5-1.4,1.1-1.9,1.9V125.1z"/>
	<path class="st1" d="M429.3,123.4L429.3,123.4c-0.3,0.2-0.5,0.5-0.8,0.7c-0.3,0.2-0.7,0.5-1,0.7c-0.4,0.2-0.8,0.3-1.3,0.5
		c-0.5,0.1-1,0.2-1.5,0.2c-0.7,0-1.4-0.1-2-0.3c-0.6-0.2-1.1-0.5-1.5-0.9c-0.4-0.4-0.8-0.9-1-1.5c-0.2-0.6-0.4-1.3-0.4-2
		c0-0.7,0.1-1.4,0.4-2c0.3-0.6,0.6-1.1,1.1-1.5c0.5-0.4,1.1-0.7,1.7-0.9s1.4-0.3,2.2-0.3c0.8,0,1.5,0.1,2.1,0.2s1.2,0.3,1.8,0.5h0.1
		v-1c0-0.4,0-0.8-0.1-1.1c-0.1-0.3-0.1-0.6-0.3-0.8c-0.3-0.5-0.7-0.9-1.3-1.2s-1.4-0.5-2.4-0.5c-0.8,0-1.5,0.1-2.1,0.2
		c-0.7,0.1-1.3,0.3-2,0.6v-2c0.2-0.1,0.5-0.2,0.9-0.4c0.3-0.1,0.7-0.2,1.1-0.3s0.8-0.1,1.2-0.2c0.4,0,0.8-0.1,1.2-0.1
		c1.5,0,2.7,0.3,3.7,0.8s1.6,1.2,2.1,2.1c0.2,0.3,0.3,0.7,0.3,1.1c0.1,0.4,0.1,0.8,0.1,1.3v9.9h-2L429.3,123.4z M429.2,118.6
		c-0.4-0.1-1-0.2-1.6-0.4c-0.6-0.1-1.3-0.2-2-0.2c-1,0-1.8,0.2-2.4,0.7c-0.6,0.4-0.9,1.1-0.9,2c0,0.5,0.1,0.9,0.2,1.2
		s0.3,0.6,0.6,0.9c0.3,0.2,0.6,0.4,0.9,0.5s0.7,0.2,1.1,0.2c0.5,0,1-0.1,1.4-0.2c0.4-0.2,0.8-0.3,1.2-0.5c0.3-0.2,0.6-0.4,0.9-0.6
		c0.2-0.2,0.4-0.4,0.5-0.5V118.6z"/>
	<path class="st1" d="M438.6,112.3L438.6,112.3c0.3-0.3,0.6-0.7,0.9-1s0.7-0.6,1.1-0.8c0.4-0.2,0.9-0.4,1.3-0.5s1-0.2,1.6-0.2
		c0.7,0,1.3,0.1,1.9,0.3s1.1,0.5,1.5,0.9c0.4,0.4,0.8,1,1,1.6c0.3,0.7,0.4,1.5,0.4,2.5v9.9H446v-9.5c0-1.3-0.2-2.2-0.7-2.8
		c-0.5-0.6-1.2-0.8-2.2-0.8c-0.8,0-1.6,0.2-2.4,0.7c-0.8,0.5-1.5,1.1-2,1.9v10.5h-2.4v-14.8h1.9L438.6,112.3z"/>
	<path class="st1" d="M462.4,125.1h-2.5v-20.9h5.8c0.9,0,1.7,0.1,2.4,0.2c0.7,0.1,1.4,0.3,2,0.5c1.2,0.4,2.2,1.1,2.8,2s1,2,1,3.3
		c0,1.1-0.2,2-0.6,2.8c-0.4,0.8-1,1.5-1.8,2c-0.8,0.5-1.8,1-2.9,1.2c-1.2,0.3-2.5,0.4-3.9,0.4c-0.7,0-1.4,0-2.2-0.1V125.1z
		 M462.4,114.2c0.3,0,0.7,0.1,1.1,0.1c0.4,0,0.7,0,1.1,0c1.2,0,2.2-0.1,3.1-0.3s1.5-0.5,2.1-0.8s0.9-0.8,1.2-1.3
		c0.2-0.5,0.4-1.1,0.4-1.8c0-0.8-0.2-1.5-0.6-2c-0.4-0.5-0.9-0.9-1.7-1.2c-0.4-0.2-1-0.3-1.5-0.4c-0.6-0.1-1.3-0.1-2-0.1h-3V114.2z"
		/>
	<path class="st1" d="M486,112.2h-0.2c-0.6,0-1.1,0.1-1.7,0.2c-0.6,0.1-1.1,0.3-1.6,0.5c-0.5,0.2-0.9,0.5-1.3,0.8s-0.7,0.7-1,1.1
		v10.3h-2.4v-14.8h1.9l0.5,2.4h0c0.2-0.4,0.5-0.7,0.9-1.1c0.3-0.3,0.7-0.6,1.2-0.9s0.9-0.4,1.4-0.6c0.5-0.1,1.1-0.2,1.6-0.2
		c0.1,0,0.2,0,0.3,0c0.1,0,0.2,0,0.3,0V112.2z"/>
	<path class="st1" d="M501.8,117.7c0,1.2-0.2,2.2-0.5,3.2c-0.3,1-0.8,1.8-1.4,2.5c-0.6,0.7-1.3,1.2-2.2,1.6
		c-0.9,0.4-1.8,0.6-2.9,0.6c-1.1,0-2.1-0.2-3-0.6c-0.9-0.4-1.6-0.9-2.2-1.6c-0.6-0.7-1.1-1.5-1.4-2.5c-0.3-1-0.5-2-0.5-3.2
		c0-1.2,0.2-2.2,0.5-3.2c0.3-1,0.8-1.8,1.4-2.5s1.3-1.2,2.2-1.6c0.9-0.4,1.8-0.6,2.9-0.6c1.1,0,2.1,0.2,3,0.6s1.6,0.9,2.2,1.6
		c0.6,0.7,1.1,1.5,1.4,2.5C501.6,115.4,501.8,116.5,501.8,117.7z M499.2,117.7c0-0.9-0.1-1.7-0.3-2.4c-0.2-0.7-0.5-1.3-0.9-1.8
		c-0.4-0.5-0.9-0.9-1.4-1.1c-0.6-0.3-1.2-0.4-1.8-0.4s-1.3,0.1-1.8,0.4c-0.6,0.3-1,0.6-1.4,1.1c-0.4,0.5-0.7,1.1-0.9,1.8
		c-0.2,0.7-0.3,1.5-0.3,2.4c0,0.9,0.1,1.7,0.3,2.4c0.2,0.7,0.5,1.3,0.9,1.8c0.4,0.5,0.9,0.9,1.4,1.1c0.6,0.3,1.2,0.4,1.8,0.4
		s1.3-0.1,1.8-0.4c0.5-0.3,1-0.6,1.4-1.1c0.4-0.5,0.7-1.1,0.9-1.8C499.1,119.4,499.2,118.6,499.2,117.7z"/>
	<path class="st1" d="M511.3,109.8c0.6,0,1.2,0.1,1.7,0.2c0.5,0.2,0.9,0.4,1.2,0.6s0.6,0.5,0.8,0.7c0.2,0.2,0.3,0.4,0.4,0.5h0.1
		l0.5-1.7h1.8v15.7c0,1.1-0.2,2.1-0.6,3c-0.4,0.8-0.9,1.6-1.6,2.1c-0.7,0.6-1.5,1-2.4,1.3c-1,0.3-2,0.4-3.2,0.4
		c-1,0-1.9-0.1-2.6-0.3c-0.8-0.2-1.4-0.4-1.8-0.6v-2c0.4,0.1,0.7,0.3,1,0.4c0.3,0.1,0.7,0.2,1,0.2c0.4,0.1,0.7,0.1,1.1,0.1
		c0.4,0,0.8,0,1.2,0c1.7,0,3.1-0.4,4-1.2c0.9-0.8,1.4-2.1,1.4-3.7v-2h0c-0.5,0.6-1.1,1-1.9,1.3s-1.5,0.4-2.4,0.4
		c-0.4,0-0.9,0-1.3-0.1c-0.5-0.1-1-0.3-1.4-0.5c-0.5-0.2-0.9-0.5-1.4-0.9c-0.4-0.4-0.8-0.8-1.2-1.4c-0.3-0.6-0.6-1.2-0.8-2
		c-0.2-0.8-0.3-1.6-0.3-2.6c0-1.4,0.2-2.6,0.6-3.6s0.9-1.9,1.5-2.5c0.6-0.7,1.3-1.2,2.1-1.5C509.7,110,510.5,109.8,511.3,109.8z
		 M507.3,117.7c0,1.2,0.1,2.1,0.4,2.9c0.3,0.7,0.6,1.3,1.1,1.7c0.4,0.4,0.9,0.7,1.4,0.8c0.5,0.2,1,0.2,1.5,0.2
		c0.7,0,1.5-0.2,2.1-0.5c0.7-0.3,1.2-0.7,1.7-1.2v-7.8c-0.1-0.2-0.3-0.4-0.6-0.6c-0.2-0.2-0.5-0.5-0.8-0.7c-0.3-0.2-0.7-0.4-1.1-0.5
		s-0.8-0.2-1.3-0.2c-0.7,0-1.4,0.1-1.9,0.4c-0.5,0.3-1,0.7-1.4,1.2c-0.4,0.5-0.6,1.1-0.8,1.8C507.4,116.1,507.3,116.9,507.3,117.7z"
		/>
	<path class="st1" d="M530.7,112.2h-0.2c-0.6,0-1.1,0.1-1.7,0.2c-0.6,0.1-1.1,0.3-1.6,0.5c-0.5,0.2-0.9,0.5-1.3,0.8s-0.7,0.7-1,1.1
		v10.3h-2.4v-14.8h1.9l0.5,2.4h0c0.2-0.4,0.5-0.7,0.9-1.1c0.3-0.3,0.7-0.6,1.2-0.9s0.9-0.4,1.4-0.6c0.5-0.1,1.1-0.2,1.6-0.2
		c0.1,0,0.2,0,0.3,0c0.1,0,0.2,0,0.3,0V112.2z"/>
	<path class="st1" d="M540.3,123.4c0.8,0,1.5-0.1,2.2-0.2c0.7-0.1,1.3-0.3,2-0.6v2c-0.5,0.3-1.2,0.5-2,0.6c-0.8,0.2-1.6,0.2-2.5,0.2
		c-1.1,0-2.1-0.1-3-0.4c-0.9-0.3-1.7-0.7-2.4-1.3c-0.7-0.6-1.2-1.4-1.6-2.4c-0.4-1-0.6-2.1-0.6-3.5c0-1.4,0.2-2.5,0.6-3.5
		c0.4-1,0.9-1.8,1.5-2.5c0.6-0.7,1.3-1.2,2.2-1.5c0.8-0.3,1.7-0.5,2.5-0.5c0.8,0,1.6,0.1,2.3,0.4c0.7,0.3,1.3,0.7,1.9,1.3
		c0.5,0.6,0.9,1.4,1.3,2.3s0.5,2.1,0.5,3.4c0,0.1,0,0.2,0,0.3c0,0.1,0,0.3,0,0.6h-10.2c0,0.9,0.1,1.8,0.4,2.4
		c0.3,0.7,0.7,1.2,1.2,1.6c0.5,0.4,1.1,0.7,1.7,0.9C538.9,123.3,539.6,123.4,540.3,123.4z M539.1,111.9c-0.6,0-1.1,0.1-1.6,0.3
		s-0.9,0.5-1.3,0.9s-0.6,0.8-0.9,1.3c-0.2,0.5-0.4,1-0.4,1.6h7.6c0-0.6-0.1-1.1-0.2-1.6c-0.2-0.5-0.4-0.9-0.7-1.3
		c-0.3-0.4-0.7-0.7-1.1-0.9C540.1,112,539.6,111.9,539.1,111.9z"/>
	<path class="st1" d="M551,114.2c0,0.4,0.1,0.7,0.3,1c0.2,0.3,0.4,0.5,0.7,0.6c0.3,0.2,0.6,0.3,1,0.4c0.4,0.1,0.8,0.2,1.2,0.3
		c0.6,0.1,1.1,0.3,1.6,0.4c0.5,0.2,1,0.4,1.4,0.7c0.4,0.3,0.8,0.7,1,1.2s0.4,1.2,0.4,2c0,0.8-0.1,1.4-0.4,2
		c-0.3,0.6-0.7,1.1-1.2,1.5s-1.2,0.7-1.9,0.9c-0.7,0.2-1.6,0.3-2.4,0.3c-0.5,0-1,0-1.5-0.1c-0.4-0.1-0.8-0.1-1.2-0.2
		c-0.3-0.1-0.6-0.2-0.9-0.3c-0.2-0.1-0.4-0.2-0.6-0.3v-2c0.6,0.2,1.2,0.4,1.8,0.6c0.6,0.1,1.3,0.2,2,0.2c0.6,0,1.1-0.1,1.5-0.2
		c0.5-0.1,0.9-0.3,1.2-0.5c0.3-0.2,0.6-0.5,0.8-0.8c0.2-0.3,0.3-0.7,0.3-1.1c0-0.4-0.1-0.8-0.2-1c-0.2-0.3-0.4-0.5-0.7-0.7
		c-0.3-0.2-0.6-0.3-1-0.4c-0.4-0.1-0.7-0.2-1.1-0.3c-0.5-0.1-1.1-0.2-1.6-0.4s-1-0.4-1.5-0.7s-0.8-0.7-1.1-1.1
		c-0.3-0.5-0.4-1.1-0.4-1.9c0-0.8,0.1-1.5,0.4-2c0.3-0.6,0.7-1,1.1-1.4c0.5-0.4,1-0.7,1.7-0.8c0.6-0.2,1.3-0.3,2-0.3
		c0.8,0,1.6,0.1,2.3,0.2s1.3,0.4,1.9,0.6v2.1c-0.6-0.2-1.2-0.4-1.9-0.6c-0.6-0.2-1.3-0.2-1.9-0.2c-0.6,0-1,0.1-1.4,0.2
		c-0.4,0.1-0.7,0.3-1,0.5c-0.3,0.2-0.4,0.4-0.6,0.7C551,113.5,551,113.8,551,114.2z"/>
	<path class="st1" d="M563.9,114.2c0,0.4,0.1,0.7,0.3,1c0.2,0.3,0.4,0.5,0.7,0.6c0.3,0.2,0.6,0.3,1,0.4c0.4,0.1,0.8,0.2,1.2,0.3
		c0.6,0.1,1.1,0.3,1.6,0.4c0.5,0.2,1,0.4,1.4,0.7c0.4,0.3,0.8,0.7,1,1.2s0.4,1.2,0.4,2c0,0.8-0.1,1.4-0.4,2
		c-0.3,0.6-0.7,1.1-1.2,1.5s-1.2,0.7-1.9,0.9c-0.7,0.2-1.6,0.3-2.4,0.3c-0.5,0-1,0-1.5-0.1c-0.4-0.1-0.8-0.1-1.2-0.2
		c-0.3-0.1-0.6-0.2-0.9-0.3c-0.2-0.1-0.4-0.2-0.6-0.3v-2c0.6,0.2,1.2,0.4,1.8,0.6c0.6,0.1,1.3,0.2,2,0.2c0.6,0,1.1-0.1,1.5-0.2
		c0.5-0.1,0.9-0.3,1.2-0.5c0.3-0.2,0.6-0.5,0.8-0.8c0.2-0.3,0.3-0.7,0.3-1.1c0-0.4-0.1-0.8-0.2-1c-0.2-0.3-0.4-0.5-0.7-0.7
		c-0.3-0.2-0.6-0.3-1-0.4c-0.4-0.1-0.7-0.2-1.1-0.3c-0.5-0.1-1.1-0.2-1.6-0.4s-1-0.4-1.5-0.7s-0.8-0.7-1.1-1.1
		c-0.3-0.5-0.4-1.1-0.4-1.9c0-0.8,0.1-1.5,0.4-2c0.3-0.6,0.7-1,1.1-1.4c0.5-0.4,1-0.7,1.7-0.8c0.6-0.2,1.3-0.3,2-0.3
		c0.8,0,1.6,0.1,2.3,0.2s1.3,0.4,1.9,0.6v2.1c-0.6-0.2-1.2-0.4-1.9-0.6c-0.6-0.2-1.3-0.2-1.9-0.2c-0.6,0-1,0.1-1.4,0.2
		c-0.4,0.1-0.7,0.3-1,0.5c-0.3,0.2-0.4,0.4-0.6,0.7C563.9,113.5,563.9,113.8,563.9,114.2z"/>
</g>
</svg>
