<svg width="32" height="32" viewBox="0 0 32 32" fill="none" xmlns="http://www.w3.org/2000/svg">
<path d="M32 0H0V32H32V0Z" fill="#0052CC"/>
<path d="M16.0399 24.72C17.7199 23.04 17.7199 20.28 16.0399 18.6L10.3998 13L7.83988 15.56C7.55988 15.84 7.55988 16.28 7.83988 16.52L16.0399 24.72Z" fill="white"/>
<path d="M24.2398 15.56L16.0398 7.35999L15.9997 7.39999C14.3197 9.07999 14.3197 11.8 15.9997 13.48L21.6398 19.08L24.1997 16.52C24.5197 16.24 24.5198 15.8 24.2398 15.56Z" fill="white"/>
<path d="M16.0399 13.44C14.3599 11.76 14.3599 9.03999 16.0399 7.35999L10.1599 13.2L13.1999 16.24L16.0399 13.44Z" fill="url(#paint0_linear)"/>
<path d="M18.84 15.8L16.04 18.6C17.72 20.28 17.72 23.04 16.04 24.72L21.92 18.84L18.84 15.8Z" fill="url(#paint1_linear)"/>
<defs>
<linearGradient id="paint0_linear" x1="15.8997" y1="10.5383" x2="12.3525" y2="14.0854" gradientUnits="userSpaceOnUse">
<stop offset="0.0680226" stop-color="white" stop-opacity="0.4"/>
<stop offset="1" stop-color="white"/>
</linearGradient>
<linearGradient id="paint1_linear" x1="16.2598" y1="21.4298" x2="20.1441" y2="17.5456" gradientUnits="userSpaceOnUse">
<stop offset="0.0680226" stop-color="white" stop-opacity="0.4"/>
<stop offset="0.9077" stop-color="white"/>
</linearGradient>
</defs>
</svg>
