<svg xmlns="http://www.w3.org/2000/svg" width="49.982" height="66.707" viewBox="0 0 49.982 66.707">
  <path id="sql-database-generic" d="M851.933,1010.649c-6.244-.45-12.416-2.022-16.2-4.126a10.874,10.874,0,0,1-4.443-3.984l-.384-.781v-49l.3-.616c1.356-2.753,5.684-5.235,11.725-6.724a61.165,61.165,0,0,1,7.426-1.263,79.93,79.93,0,0,1,11.463.07c6.538.768,12.1,2.488,15.531,4.8a10.117,10.117,0,0,1,3.139,3.3l.394.842-.034,24.424-.034,24.425-.316.643a8.334,8.334,0,0,1-1.168,1.545c-2.851,3.022-8.967,5.258-16.988,6.211-1.635.194-8.738.351-10.415.23Zm11.507-20.992c-.024-.062-.957-.894-2.074-1.848s-2.079-1.779-2.138-1.834.148-.249.458-.431a7.966,7.966,0,0,0,1.324-1.127,7.566,7.566,0,0,0-.069-9.869,6.16,6.16,0,0,0-4.788-1.809,6.422,6.422,0,0,0-6.5,4.941,10.391,10.391,0,0,0,0,4.107,6.438,6.438,0,0,0,5.08,4.612,1.882,1.882,0,0,1,1.489.811c.332.363,1.013,1.087,1.514,1.61l.91.95h2.419a12.156,12.156,0,0,0,2.376-.114Zm-8.3-6.774a2.188,2.188,0,0,1-1.135-1.215,3.875,3.875,0,0,1-.3-2.051,3.777,3.777,0,0,1,.3-2.067,2.2,2.2,0,0,1,1.976-1.379c1.3-.094,2.051.544,2.444,2.078.482,1.88-.048,3.88-1.205,4.543a2.371,2.371,0,0,1-2.082.091Zm-10.724,3.49c2.537-.481,3.977-1.956,3.977-4.074,0-1.879-.93-2.973-3.5-4.12-1.471-.657-2-1.069-2-1.55,0-.4.505-.836,1.094-.946a7.57,7.57,0,0,1,3,.521l.754.3v-3.34l-.819-.182a15.658,15.658,0,0,0-2.784-.176,6.15,6.15,0,0,0-2.7.3,3.9,3.9,0,0,0-2.774,3.953c.013,1.8.964,2.924,3.328,3.935,1.4.6,1.954,1.05,1.954,1.587,0,1.14-1.9,1.281-3.911.289l-1.1-.543a7.391,7.391,0,0,0-.1,1.734c0,1.775,0,1.783.323,1.906A12.817,12.817,0,0,0,844.419,986.373Zm29-1.646V983.22h-4.585v-10.35h-4.061v13.363h8.647Zm-14.149-26.4a38.585,38.585,0,0,0,9.722-1.7c2.652-.887,4.218-1.959,4.569-3.129a1.356,1.356,0,0,0-.063-1.116c-.846-2.215-5.572-3.917-12.793-4.607a65.21,65.21,0,0,0-11.652.2c-4.494.607-8.141,1.735-9.763,3.019-3.281,2.6.189,5.455,8.256,6.8a54.351,54.351,0,0,0,11.725.533Z" transform="translate(-830.906 -943.984)" fill="#00bcf2"/>
</svg>
